<svg width="197" height="52" fill="none" xmlns="http://www.w3.org/2000/svg"><path d="M30 7H4v26H0V3h34v30h-4V7Z" fill="#CFE3F1"/><path fill-rule="evenodd" clip-rule="evenodd" d="M17 10a3 3 0 1 0 0-6 3 3 0 0 0 0 6Zm7-3a7 7 0 0 1-5 6.71V17h7v4h-7v21.37h.04c1.42-.32 3.14-.3 4.42-.29l.7.01c1.7 0 3.26-.1 4.37-.6.51-.23.85-.5 1.06-.82.21-.31.41-.81.41-1.67v-3.5h-4v-4h8V39c0 1.5-.36 2.82-1.1 3.9a6.36 6.36 0 0 1-2.75 2.25c-1.97.87-4.32.94-6 .94h-.92c-1.28-.02-2.4-.03-3.32.18-.53.12-.75.27-.82.33-.01.02-.09.08-.09.4v1.5h-4V47c0-.32-.08-.38-.1-.4-.06-.06-.28-.21-.81-.33-.92-.2-2.04-.2-3.32-.18h-.93c-1.67 0-4.02-.07-6-.94A6.36 6.36 0 0 1 1.1 42.9 6.84 6.84 0 0 1 0 39v-7.5h8v4H4V39c0 .86.2 1.36.4 1.67.22.32.56.6 1.07.82 1.1.5 2.68.6 4.37.6h.7c1.28-.02 3-.04 4.42.28H15V21H8v-4h7v-3.29A7 7 0 1 1 24 7Z" fill="#028AF3"/><path d="M46.84 33V19.9h3.56v5.12h4.7v-5.11h3.56V33H55.1v-5.11h-4.7V33h-3.56ZM63.74 33h-3.83l4.32-13.1h4.86L73.4 33h-3.84l-2.86-9.49h-.1L63.74 33Zm-.71-5.16h7.2v2.65h-7.2v-2.65ZM78.48 19.9l2.15 3.82h.1l2.17-3.81h3.97l-3.92 6.54L87.02 33h-4.07l-2.22-3.89h-.1L78.4 33h-4.04l4.02-6.55-3.89-6.54h3.99ZM100.2 26.45c0 1.46-.28 2.7-.85 3.7a5.7 5.7 0 0 1-2.3 2.26c-.96.51-2.03.77-3.22.77-1.19 0-2.27-.26-3.23-.77a5.76 5.76 0 0 1-2.29-2.28 7.4 7.4 0 0 1-.84-3.68c0-1.45.28-2.68.84-3.68.57-1 1.33-1.76 2.29-2.27a6.74 6.74 0 0 1 3.23-.77c1.19 0 2.26.26 3.23.77a5.65 5.65 0 0 1 2.3 2.27c.56 1 .84 2.23.84 3.68Zm-3.65 0c0-.78-.1-1.44-.32-1.98a2.5 2.5 0 0 0-.91-1.22c-.4-.29-.9-.43-1.49-.43-.58 0-1.08.14-1.48.43-.4.27-.71.68-.92 1.22-.2.54-.3 1.2-.3 1.98 0 .79.1 1.45.3 2 .21.53.51.94.92 1.22.4.28.9.42 1.48.42.6 0 1.09-.14 1.49-.42.4-.28.7-.7.91-1.23.21-.54.32-1.2.32-1.99ZM101.41 36.14v-5.88h.92c.3-.18.59-.45.83-.79.25-.34.47-.83.64-1.46.18-.64.31-1.49.4-2.55l.43-5.55h9.26v10.35h1.38v5.88h-3.43V33h-7v3.14h-3.43Zm4.99-5.88h4.06v-7.49h-2.63l-.2 2.69c-.07.8-.16 1.5-.28 2.1a10.13 10.13 0 0 1-.95 2.7ZM124.54 33l-4.02-5.3h-.5V33h-3.55V19.9h3.56v4.94h.45l3.76-4.93h4.48l-4.99 6.29L129 33h-4.46ZM133.35 33h-3.83l4.32-13.1h4.86l4.32 13.1h-3.84l-2.86-9.49h-.1L133.35 33Zm-.71-5.16h7.2v2.65h-7.2v-2.65ZM147.9 33v-2.56l4.87-4.04c.33-.27.6-.52.83-.75.24-.24.42-.48.54-.74.13-.25.2-.53.2-.83 0-.34-.08-.63-.22-.87a1.41 1.41 0 0 0-.6-.55c-.24-.13-.53-.2-.86-.2-.33 0-.62.07-.87.2-.25.14-.44.33-.57.59-.14.25-.21.56-.21.93h-3.38a4.05 4.05 0 0 1 2.37-3.91 6.13 6.13 0 0 1 2.66-.54c1.05 0 1.96.17 2.72.5.77.34 1.37.8 1.79 1.41a3.86 3.86 0 0 1 .32 3.63c-.21.5-.59 1.04-1.13 1.64a23 23 0 0 1-2.3 2.15l-1.24 1.03v.07h5.12V33h-10.05ZM165.23 33.36a5.7 5.7 0 0 1-3.08-.83 5.3 5.3 0 0 1-2-2.36 8.78 8.78 0 0 1-.7-3.69c0-1.44.24-2.66.7-3.67a5.15 5.15 0 0 1 5.08-3.08 5.8 5.8 0 0 1 3.08.8 5.14 5.14 0 0 1 2 2.29c.47 1 .7 2.22.7 3.66a8.9 8.9 0 0 1-.7 3.7 5.31 5.31 0 0 1-2 2.37c-.87.54-1.9.8-3.08.8Zm0-2.9c.61 0 1.12-.31 1.5-.95.4-.64.6-1.65.6-3.03 0-.9-.1-1.63-.27-2.2a2.7 2.7 0 0 0-.74-1.27 1.6 1.6 0 0 0-1.1-.42c-.6 0-1.1.31-1.5.94-.38.62-.58 1.6-.59 2.95 0 .92.09 1.67.27 2.26.17.6.42 1.03.74 1.3.32.29.68.43 1.09.43ZM177.79 33.18a6.74 6.74 0 0 1-2.75-.53 4.59 4.59 0 0 1-1.88-1.48 3.61 3.61 0 0 1-.69-2.16h3.58c0 .25.08.48.23.68.15.2.36.35.63.46.26.11.56.17.9.17.33 0 .62-.06.87-.18.26-.12.45-.28.6-.49.13-.2.2-.45.2-.72 0-.26-.08-.5-.25-.7-.16-.2-.39-.36-.68-.48-.3-.11-.63-.17-1.02-.17h-1.33v-2.45h1.33c.36 0 .67-.06.94-.18.27-.11.48-.27.63-.48.15-.2.23-.44.22-.7 0-.26-.05-.48-.18-.68a1.3 1.3 0 0 0-.54-.46 2.1 2.1 0 0 0-1.66 0c-.25.12-.44.28-.59.49-.14.2-.22.44-.22.7h-3.4c0-.8.22-1.5.66-2.12a4.43 4.43 0 0 1 1.8-1.45 6.25 6.25 0 0 1 2.63-.52c.96 0 1.82.16 2.56.5.74.32 1.33.77 1.74 1.35.42.57.63 1.22.63 1.96a2.3 2.3 0 0 1-.75 1.8c-.51.47-1.16.75-1.94.83v.1c1.06.12 1.86.44 2.39.98.53.53.8 1.19.79 2 0 .76-.23 1.44-.7 2.03-.45.6-1.1 1.06-1.92 1.4a7.4 7.4 0 0 1-2.83.5ZM190.52 33.36a5.7 5.7 0 0 1-3.08-.83 5.31 5.31 0 0 1-2-2.36 8.78 8.78 0 0 1-.7-3.69c.01-1.44.24-2.66.7-3.67a5.15 5.15 0 0 1 5.08-3.08 5.8 5.8 0 0 1 3.08.8 5.14 5.14 0 0 1 2 2.29c.47 1 .7 2.22.7 3.66s-.23 2.68-.7 3.7a5.3 5.3 0 0 1-2 2.37c-.86.54-1.89.8-3.08.8Zm0-2.9c.62 0 1.12-.31 1.51-.95.4-.64.6-1.65.6-3.03 0-.9-.1-1.63-.28-2.2a2.7 2.7 0 0 0-.74-1.27 1.6 1.6 0 0 0-1.09-.42c-.6 0-1.11.31-1.5.94-.39.62-.58 1.6-.6 2.95 0 .92.1 1.67.27 2.26.18.6.43 1.03.74 1.3.32.29.69.43 1.1.43Z" fill="#028AF3"/></svg>