<svg width="377" height="100" fill="none" xmlns="http://www.w3.org/2000/svg"><path d="M57.55 13.46H7.67v50H0V5.76h65.22v57.7h-7.67v-50Z" fill="#EDF5FA"/><path fill-rule="evenodd" clip-rule="evenodd" d="M32.7 19.23a5.77 5.77 0 1 0 0-11.54 5.77 5.77 0 0 0 0 11.54Zm13.45-5.77c0 6.1-4.05 11.25-9.61 12.9v6.33H50v7.7H36.54v41.1l.07-.02c2.73-.6 6.04-.57 8.5-.54l1.35.01c3.26 0 6.27-.2 8.41-1.15a4.57 4.57 0 0 0 2.04-1.58c.4-.6.78-1.56.78-3.21v-6.73H50v-7.7h15.38V75c0 2.9-.69 5.43-2.1 7.52a12.22 12.22 0 0 1-5.3 4.3c-3.78 1.68-8.3 1.82-11.52 1.82l-1.8-.01c-2.44-.03-4.6-.05-6.37.35-1.02.23-1.44.51-1.57.64-.03.03-.18.14-.18.76v2.89h-7.7v-2.89c0-.62-.14-.73-.17-.76-.14-.13-.55-.41-1.58-.64-1.76-.4-3.92-.38-6.37-.35h-1.8c-3.21 0-7.74-.13-11.52-1.8a12.22 12.22 0 0 1-5.3-4.31A13.16 13.16 0 0 1 0 75V60.58h15.38v7.69H7.7V75c0 1.65.38 2.61.79 3.21a4.57 4.57 0 0 0 2.04 1.58c2.13.94 5.15 1.15 8.4 1.15h1.36c2.45-.04 5.76-.08 8.5.53l.07.02v-41.1H15.38v-7.7h13.47v-6.32a13.47 13.47 0 1 1 17.3-12.9Z" fill="#C5DDEE"/><path d="M89.86 63.46V38.3h6.82v9.83h9.03V38.3h6.81v25.17h-6.81v-9.83h-9.03v9.83h-6.82ZM122.28 63.46h-7.35l8.29-25.17h9.32l8.29 25.17h-7.36l-5.5-18.24h-.2l-5.48 18.24Zm-1.37-9.93h13.83v5.11h-13.83v-5.11ZM150.55 38.29l4.12 7.32h.2l4.17-7.32h7.6l-7.5 12.58 7.8 12.6h-7.8l-4.27-7.48h-.2l-4.26 7.47h-7.75l7.7-12.59-7.46-12.58h7.65ZM192.22 50.87c0 2.8-.54 5.17-1.63 7.1a10.96 10.96 0 0 1-4.4 4.36c-1.85.98-3.9 1.48-6.18 1.48-2.29 0-4.36-.5-6.2-1.5-1.84-1-3.3-2.45-4.4-4.37a14.27 14.27 0 0 1-1.61-7.07c0-2.8.54-5.16 1.61-7.08a10.88 10.88 0 0 1 4.4-4.36c1.84-1 3.91-1.49 6.2-1.49 2.27 0 4.33.5 6.18 1.49 1.85.98 3.31 2.44 4.4 4.36a14.17 14.17 0 0 1 1.63 7.08Zm-7.01 0c0-1.5-.2-2.77-.6-3.8a4.82 4.82 0 0 0-1.76-2.37 4.82 4.82 0 0 0-2.84-.8c-1.13 0-2.08.26-2.86.8a4.92 4.92 0 0 0-1.75 2.36 10.8 10.8 0 0 0-.59 3.81c0 1.51.2 2.79.59 3.83a5 5 0 0 0 1.75 2.36c.78.53 1.73.8 2.86.8s2.08-.27 2.84-.8a4.9 4.9 0 0 0 1.76-2.36c.4-1.04.6-2.32.6-3.83ZM194.54 69.5V58.2h1.77a5.59 5.59 0 0 0 1.6-1.52c.48-.66.88-1.6 1.22-2.82.34-1.22.6-2.85.76-4.9l.83-10.67h17.76V58.2h2.65v11.3h-6.57v-6.04h-13.44v6.05h-6.58Zm9.57-11.3h7.8V43.8h-5.06l-.39 5.16c-.11 1.54-.29 2.89-.53 4.04-.22 1.15-.5 2.15-.82 3-.3.84-.64 1.58-1 2.2ZM238.9 63.46l-7.7-10.18h-.95v10.18h-6.82V38.3h6.82v9.49h.88l7.22-9.5h8.58l-9.57 12.1 10.1 13.08h-8.55ZM255.82 63.46h-7.36l8.3-25.17h9.31l8.3 25.17H267l-5.49-18.24h-.2l-5.49 18.24Zm-1.37-9.93h13.83v5.11h-13.83v-5.11ZM283.7 63.46v-4.92l9.38-7.76c.62-.52 1.15-1 1.6-1.45.44-.46.78-.93 1.02-1.42a3.5 3.5 0 0 0 .37-1.6c0-.66-.14-1.2-.42-1.67a2.7 2.7 0 0 0-1.13-1.06 3.52 3.52 0 0 0-1.66-.38c-.63 0-1.19.13-1.67.38-.48.26-.84.63-1.1 1.12-.27.5-.4 1.1-.4 1.8h-6.47a7.78 7.78 0 0 1 4.55-7.52 11.73 11.73 0 0 1 5.09-1.04c2 0 3.75.33 5.22.97a7.76 7.76 0 0 1 3.42 2.7 7.45 7.45 0 0 1 .61 6.98c-.4.96-1.11 2.01-2.15 3.17a44.13 44.13 0 0 1-4.43 4.13l-2.35 1.97V58h9.8v5.46h-19.27ZM316.97 64.15a10.9 10.9 0 0 1-5.91-1.59 10.2 10.2 0 0 1-3.84-4.53 16.93 16.93 0 0 1-1.34-7.1c.01-2.78.46-5.13 1.35-7.06a9.9 9.9 0 0 1 3.83-4.42c1.66-1 3.63-1.5 5.91-1.5 2.28 0 4.25.5 5.91 1.52a9.87 9.87 0 0 1 3.84 4.41 16.5 16.5 0 0 1 1.33 7.04c0 2.78-.44 5.16-1.34 7.13a10.2 10.2 0 0 1-3.84 4.54 10.83 10.83 0 0 1-5.9 1.56Zm0-5.56c1.18 0 2.14-.61 2.9-1.84.75-1.24 1.13-3.18 1.12-5.83 0-1.73-.17-3.14-.51-4.24a5.19 5.19 0 0 0-1.43-2.43c-.6-.53-1.3-.8-2.08-.8-1.18 0-2.14.6-2.88 1.8-.74 1.2-1.13 3.08-1.14 5.67-.01 1.77.16 3.22.5 4.35a5.4 5.4 0 0 0 1.42 2.51c.62.54 1.32.81 2.1.81ZM341.07 63.8a12.9 12.9 0 0 1-5.28-1.01 8.8 8.8 0 0 1-3.6-2.84 6.95 6.95 0 0 1-1.33-4.16h6.87c0 .48.16.92.44 1.3.3.38.7.68 1.2.89.51.21 1.1.32 1.75.32.62 0 1.18-.11 1.66-.33.49-.23.86-.55 1.13-.95.27-.4.4-.86.4-1.38 0-.5-.15-.96-.47-1.35-.31-.4-.75-.7-1.31-.92a5.31 5.31 0 0 0-1.95-.33h-2.56v-4.72h2.56a4.5 4.5 0 0 0 1.79-.33 2.8 2.8 0 0 0 1.2-.93c.3-.39.45-.84.44-1.35 0-.49-.11-.92-.36-1.3a2.48 2.48 0 0 0-1.03-.89 4.02 4.02 0 0 0-3.18.01c-.48.23-.86.53-1.13.93-.28.4-.42.84-.43 1.35h-6.53c.01-1.54.43-2.9 1.27-4.08a8.5 8.5 0 0 1 3.45-2.78c1.47-.67 3.15-1 5.05-1 1.85 0 3.49.3 4.91.94a8.01 8.01 0 0 1 3.35 2.6c.8 1.1 1.2 2.36 1.2 3.78a4.42 4.42 0 0 1-1.45 3.47c-.97.9-2.2 1.43-3.7 1.6v.19c2.03.22 3.55.84 4.57 1.87a5.1 5.1 0 0 1 1.51 3.83c.01 1.48-.43 2.79-1.32 3.92a8.74 8.74 0 0 1-3.7 2.68c-1.56.65-3.37.98-5.42.98ZM365.5 64.15a10.9 10.9 0 0 1-5.92-1.59 10.2 10.2 0 0 1-3.83-4.53 16.93 16.93 0 0 1-1.34-7.1c0-2.78.46-5.13 1.35-7.06a9.9 9.9 0 0 1 3.82-4.42c1.66-1 3.63-1.5 5.92-1.5 2.28 0 4.25.5 5.9 1.52a9.87 9.87 0 0 1 3.84 4.41 16.5 16.5 0 0 1 1.34 7.04c0 2.78-.45 5.16-1.35 7.13a10.2 10.2 0 0 1-3.84 4.54 10.83 10.83 0 0 1-5.9 1.56Zm0-5.56c1.17 0 2.14-.61 2.89-1.84.76-1.24 1.13-3.18 1.13-5.83 0-1.73-.17-3.14-.52-4.24a5.19 5.19 0 0 0-1.42-2.43c-.6-.53-1.3-.8-2.08-.8-1.18 0-2.14.6-2.89 1.8-.74 1.2-1.12 3.08-1.14 5.67 0 1.77.16 3.22.5 4.35a5.38 5.38 0 0 0 1.43 2.51c.61.54 1.31.81 2.1.81Z" fill="#C5DDEE"/></svg>